<?xml version="1.0" encoding="UTF-8" standalone="no"?>
<svg width="20px" height="14px" viewBox="0 0 20 14" version="1.1" xmlns="http://www.w3.org/2000/svg" xmlns:xlink="http://www.w3.org/1999/xlink" xmlns:sketch="http://www.bohemiancoding.com/sketch/ns">
    <!-- Generator: sketchtool 3.5.1 (25234) - http://www.bohemiancoding.com/sketch -->
    <title>icon_hamburger</title>
    <desc>Created with sketchtool.</desc>
    <defs></defs>
    <g id="v2" stroke="none" stroke-width="1" fill="none" fill-rule="evenodd" sketch:type="MSPage">
        <g id="icons" sketch:type="MSArtboardGroup" transform="translate(-131.000000, -287.000000)">
            <g id="icon_hamburger" sketch:type="MSLayerGroup" transform="translate(122.000000, 275.000000)">
                <rect id="bounds" fill-opacity="0" fill="#D8D8D8" sketch:type="MSShapeGroup" x="0" y="0" width="38" height="38"></rect>
                <g id="Layer_1" transform="translate(9.000000, 12.000000)" fill="#FFFFFF" sketch:type="MSShapeGroup">
                    <path d="M19.5,2 L0.5,2 C0.2,2 0,1.8 0,1.5 L0,0.5 C0,0.2 0.2,0 0.5,0 L19.5,0 C19.8,0 20,0.2 20,0.5 L20,1.5 C20,1.8 19.8,2 19.5,2 L19.5,2 Z" id="Shape"></path>
                    <path d="M19.5,8 L0.5,8 C0.2,8 0,7.8 0,7.5 L0,6.5 C0,6.2 0.2,6 0.5,6 L19.5,6 C19.8,6 20,6.2 20,6.5 L20,7.5 C20,7.8 19.8,8 19.5,8 L19.5,8 Z" id="Shape"></path>
                    <path d="M19.5,14 L0.5,14 C0.2,14 0,13.8 0,13.5 L0,12.5 C0,12.2 0.2,12 0.5,12 L19.5,12 C19.8,12 20,12.2 20,12.5 L20,13.5 C20,13.8 19.8,14 19.5,14 L19.5,14 Z" id="Shape"></path>
                </g>
            </g>
        </g>
    </g>
</svg>